<svg width="32" height="32" viewBox="0 0 32 32" fill="none" xmlns="http://www.w3.org/2000/svg">
    <g transform="rotate(90, 16, 16)">
        <g transform="scale(0.8)">
            <path fill-rule="evenodd" clip-rule="evenodd" d="M15.5289 0.977722C15.5289 0.977722 14.2052 1.08287 14.0724 2.01094C13.9025 3.19685 13.0595 9.08322 12.8901 10.264C12.7207 11.4447 13.8734 11.3983 13.7702 11.4285C13.667 11.4587 23.0072 11.8086 23.0072 11.8086C23.0072 11.8086 21.7399 20.6553 21.581 21.7647C21.422 22.8741 22.571 23.075 22.571 23.075L30.2975 23.9497C31.5851 24.0954 31.7541 22.9165 31.7541 22.9165L34.9067 0.908326C34.9067 0.908326 34.8995 -0.0837263 33.989 0.00570221C33.0785 0.0951307 15.5289 0.977722 15.5289 0.977722Z" fill="#18A058"/>
            <path fill-rule="evenodd" clip-rule="evenodd" d="M1.65587 7.17495C1.65587 7.17495 0.332051 7.28039 0.199166 8.20817C0.0293128 9.39418 -0.813697 15.2804 -0.982989 16.4613C-1.15228 17.6421 0.000280562 17.5956 -0.102919 17.6259C-0.206119 17.6561 9.1342 18.0059 9.1342 18.0059C9.1342 18.0059 7.86667 26.8527 7.70779 27.962C7.5489 29.0714 8.69783 29.2723 8.69783 29.2723L16.4245 30.1469C17.7121 30.2927 17.881 29.1137 17.881 29.1137L21.0337 7.1056C21.0337 7.1056 21.0266 6.11379 20.116 6.20293C19.2054 6.29207 1.65587 7.17495 1.65587 7.17495Z" fill="#3DDD89"/>
            <path fill-rule="evenodd" clip-rule="evenodd" d="M20.3743 11.7085L21.0337 7.1055C21.0337 7.1055 21.0266 6.11369 20.116 6.20283C19.7585 6.23782 16.8366 6.39515 13.4189 6.57336C13.1875 8.18856 12.9679 9.72198 12.8901 10.264C12.7487 11.2494 13.5283 11.3801 13.73 11.4139C13.77 11.4206 13.7873 11.4235 13.7702 11.4285C13.7032 11.4482 17.6205 11.6027 20.3743 11.7085Z" fill="#2BB571"/>
        </g>
    </g>
</svg>
